<svg xmlns="http://www.w3.org/2000/svg" viewBox="0 0 1000 466" font-family="-apple-system,BlinkMacSystemFont,'Segoe UI',Roboto,Helvetica,Arial,sans-serif" role="img" aria-label="FP8 layer eligibility: 145 of 158 linear layers converted, 13 skipped.">
<rect width="1000" height="466" fill="#333333"/>
<text x="40" y="26" font-size="17" fill="#DDDDDD"><tspan fill="#58C4DD" font-weight="600">145</tspan> of 158 linear layers run in FP8. The other <tspan fill="#F0AC5F" font-weight="600">13</tspan> cannot.</text>
<text x="40.0" y="64.0" font-size="13" fill="#888888" text-anchor="start">24 blocks x 6 matrices + lm_head</text>
<rect x="40.0" y="74.0" width="26.0" height="26.0" rx="2" fill="#58C4DD"/>
<rect x="70.0" y="74.0" width="26.0" height="26.0" rx="2" fill="#58C4DD"/>
<rect x="100.0" y="74.0" width="26.0" height="26.0" rx="2" fill="#58C4DD"/>
<rect x="130.0" y="74.0" width="26.0" height="26.0" rx="2" fill="#58C4DD"/>
<rect x="160.0" y="74.0" width="26.0" height="26.0" rx="2" fill="#58C4DD"/>
<rect x="190.0" y="74.0" width="26.0" height="26.0" rx="2" fill="#58C4DD"/>
<rect x="220.0" y="74.0" width="26.0" height="26.0" rx="2" fill="#58C4DD"/>
<rect x="250.0" y="74.0" width="26.0" height="26.0" rx="2" fill="#58C4DD"/>
<rect x="280.0" y="74.0" width="26.0" height="26.0" rx="2" fill="#58C4DD"/>
<rect x="310.0" y="74.0" width="26.0" height="26.0" rx="2" fill="#58C4DD"/>
<rect x="340.0" y="74.0" width="26.0" height="26.0" rx="2" fill="#58C4DD"/>
<rect x="370.0" y="74.0" width="26.0" height="26.0" rx="2" fill="#58C4DD"/>
<rect x="400.0" y="74.0" width="26.0" height="26.0" rx="2" fill="#58C4DD"/>
<rect x="430.0" y="74.0" width="26.0" height="26.0" rx="2" fill="#58C4DD"/>
<rect x="460.0" y="74.0" width="26.0" height="26.0" rx="2" fill="#58C4DD"/>
<rect x="490.0" y="74.0" width="26.0" height="26.0" rx="2" fill="#58C4DD"/>
<rect x="520.0" y="74.0" width="26.0" height="26.0" rx="2" fill="#58C4DD"/>
<rect x="550.0" y="74.0" width="26.0" height="26.0" rx="2" fill="#58C4DD"/>
<rect x="580.0" y="74.0" width="26.0" height="26.0" rx="2" fill="#58C4DD"/>
<rect x="610.0" y="74.0" width="26.0" height="26.0" rx="2" fill="#58C4DD"/>
<rect x="640.0" y="74.0" width="26.0" height="26.0" rx="2" fill="#58C4DD"/>
<rect x="670.0" y="74.0" width="26.0" height="26.0" rx="2" fill="#58C4DD"/>
<rect x="700.0" y="74.0" width="26.0" height="26.0" rx="2" fill="#58C4DD"/>
<rect x="730.0" y="74.0" width="26.0" height="26.0" rx="2" fill="#58C4DD"/>
<rect x="40.0" y="104.0" width="26.0" height="26.0" rx="2" fill="#58C4DD"/>
<rect x="70.0" y="104.0" width="26.0" height="26.0" rx="2" fill="#58C4DD"/>
<rect x="100.0" y="104.0" width="26.0" height="26.0" rx="2" fill="#58C4DD"/>
<rect x="130.0" y="104.0" width="26.0" height="26.0" rx="2" fill="#58C4DD"/>
<rect x="160.0" y="104.0" width="26.0" height="26.0" rx="2" fill="#58C4DD"/>
<rect x="190.0" y="104.0" width="26.0" height="26.0" rx="2" fill="#58C4DD"/>
<rect x="220.0" y="104.0" width="26.0" height="26.0" rx="2" fill="#58C4DD"/>
<rect x="250.0" y="104.0" width="26.0" height="26.0" rx="2" fill="#58C4DD"/>
<rect x="280.0" y="104.0" width="26.0" height="26.0" rx="2" fill="#58C4DD"/>
<rect x="310.0" y="104.0" width="26.0" height="26.0" rx="2" fill="#58C4DD"/>
<rect x="340.0" y="104.0" width="26.0" height="26.0" rx="2" fill="#58C4DD"/>
<rect x="370.0" y="104.0" width="26.0" height="26.0" rx="2" fill="#58C4DD"/>
<rect x="400.0" y="104.0" width="26.0" height="26.0" rx="2" fill="#58C4DD"/>
<rect x="430.0" y="104.0" width="26.0" height="26.0" rx="2" fill="#58C4DD"/>
<rect x="460.0" y="104.0" width="26.0" height="26.0" rx="2" fill="#58C4DD"/>
<rect x="490.0" y="104.0" width="26.0" height="26.0" rx="2" fill="#58C4DD"/>
<rect x="520.0" y="104.0" width="26.0" height="26.0" rx="2" fill="#58C4DD"/>
<rect x="550.0" y="104.0" width="26.0" height="26.0" rx="2" fill="#58C4DD"/>
<rect x="580.0" y="104.0" width="26.0" height="26.0" rx="2" fill="#58C4DD"/>
<rect x="610.0" y="104.0" width="26.0" height="26.0" rx="2" fill="#58C4DD"/>
<rect x="640.0" y="104.0" width="26.0" height="26.0" rx="2" fill="#58C4DD"/>
<rect x="670.0" y="104.0" width="26.0" height="26.0" rx="2" fill="#58C4DD"/>
<rect x="700.0" y="104.0" width="26.0" height="26.0" rx="2" fill="#58C4DD"/>
<rect x="730.0" y="104.0" width="26.0" height="26.0" rx="2" fill="#58C4DD"/>
<rect x="40.0" y="134.0" width="26.0" height="26.0" rx="2" fill="#58C4DD"/>
<rect x="70.0" y="134.0" width="26.0" height="26.0" rx="2" fill="#58C4DD"/>
<rect x="100.0" y="134.0" width="26.0" height="26.0" rx="2" fill="#58C4DD"/>
<rect x="130.0" y="134.0" width="26.0" height="26.0" rx="2" fill="#58C4DD"/>
<rect x="160.0" y="134.0" width="26.0" height="26.0" rx="2" fill="#58C4DD"/>
<rect x="190.0" y="134.0" width="26.0" height="26.0" rx="2" fill="#58C4DD"/>
<rect x="220.0" y="134.0" width="26.0" height="26.0" rx="2" fill="#58C4DD"/>
<rect x="250.0" y="134.0" width="26.0" height="26.0" rx="2" fill="#58C4DD"/>
<rect x="280.0" y="134.0" width="26.0" height="26.0" rx="2" fill="#58C4DD"/>
<rect x="310.0" y="134.0" width="26.0" height="26.0" rx="2" fill="#58C4DD"/>
<rect x="340.0" y="134.0" width="26.0" height="26.0" rx="2" fill="#58C4DD"/>
<rect x="370.0" y="134.0" width="26.0" height="26.0" rx="2" fill="#58C4DD"/>
<rect x="400.0" y="134.0" width="26.0" height="26.0" rx="2" fill="#58C4DD"/>
<rect x="430.0" y="134.0" width="26.0" height="26.0" rx="2" fill="#58C4DD"/>
<rect x="460.0" y="134.0" width="26.0" height="26.0" rx="2" fill="#58C4DD"/>
<rect x="490.0" y="134.0" width="26.0" height="26.0" rx="2" fill="#58C4DD"/>
<rect x="520.0" y="134.0" width="26.0" height="26.0" rx="2" fill="#58C4DD"/>
<rect x="550.0" y="134.0" width="26.0" height="26.0" rx="2" fill="#58C4DD"/>
<rect x="580.0" y="134.0" width="26.0" height="26.0" rx="2" fill="#58C4DD"/>
<rect x="610.0" y="134.0" width="26.0" height="26.0" rx="2" fill="#58C4DD"/>
<rect x="640.0" y="134.0" width="26.0" height="26.0" rx="2" fill="#58C4DD"/>
<rect x="670.0" y="134.0" width="26.0" height="26.0" rx="2" fill="#58C4DD"/>
<rect x="700.0" y="134.0" width="26.0" height="26.0" rx="2" fill="#58C4DD"/>
<rect x="730.0" y="134.0" width="26.0" height="26.0" rx="2" fill="#58C4DD"/>
<rect x="40.0" y="164.0" width="26.0" height="26.0" rx="2" fill="#58C4DD"/>
<rect x="70.0" y="164.0" width="26.0" height="26.0" rx="2" fill="#58C4DD"/>
<rect x="100.0" y="164.0" width="26.0" height="26.0" rx="2" fill="#58C4DD"/>
<rect x="130.0" y="164.0" width="26.0" height="26.0" rx="2" fill="#58C4DD"/>
<rect x="160.0" y="164.0" width="26.0" height="26.0" rx="2" fill="#58C4DD"/>
<rect x="190.0" y="164.0" width="26.0" height="26.0" rx="2" fill="#58C4DD"/>
<rect x="220.0" y="164.0" width="26.0" height="26.0" rx="2" fill="#58C4DD"/>
<rect x="250.0" y="164.0" width="26.0" height="26.0" rx="2" fill="#58C4DD"/>
<rect x="280.0" y="164.0" width="26.0" height="26.0" rx="2" fill="#58C4DD"/>
<rect x="310.0" y="164.0" width="26.0" height="26.0" rx="2" fill="#58C4DD"/>
<rect x="340.0" y="164.0" width="26.0" height="26.0" rx="2" fill="#58C4DD"/>
<rect x="370.0" y="164.0" width="26.0" height="26.0" rx="2" fill="#58C4DD"/>
<rect x="400.0" y="164.0" width="26.0" height="26.0" rx="2" fill="#58C4DD"/>
<rect x="430.0" y="164.0" width="26.0" height="26.0" rx="2" fill="#58C4DD"/>
<rect x="460.0" y="164.0" width="26.0" height="26.0" rx="2" fill="#58C4DD"/>
<rect x="490.0" y="164.0" width="26.0" height="26.0" rx="2" fill="#58C4DD"/>
<rect x="520.0" y="164.0" width="26.0" height="26.0" rx="2" fill="#58C4DD"/>
<rect x="550.0" y="164.0" width="26.0" height="26.0" rx="2" fill="#58C4DD"/>
<rect x="580.0" y="164.0" width="26.0" height="26.0" rx="2" fill="#58C4DD"/>
<rect x="610.0" y="164.0" width="26.0" height="26.0" rx="2" fill="#58C4DD"/>
<rect x="640.0" y="164.0" width="26.0" height="26.0" rx="2" fill="#58C4DD"/>
<rect x="670.0" y="164.0" width="26.0" height="26.0" rx="2" fill="#58C4DD"/>
<rect x="700.0" y="164.0" width="26.0" height="26.0" rx="2" fill="#58C4DD"/>
<rect x="730.0" y="164.0" width="26.0" height="26.0" rx="2" fill="#58C4DD"/>
<rect x="40.0" y="194.0" width="26.0" height="26.0" rx="2" fill="#58C4DD"/>
<rect x="70.0" y="194.0" width="26.0" height="26.0" rx="2" fill="#58C4DD"/>
<rect x="100.0" y="194.0" width="26.0" height="26.0" rx="2" fill="#58C4DD"/>
<rect x="130.0" y="194.0" width="26.0" height="26.0" rx="2" fill="#58C4DD"/>
<rect x="160.0" y="194.0" width="26.0" height="26.0" rx="2" fill="#58C4DD"/>
<rect x="190.0" y="194.0" width="26.0" height="26.0" rx="2" fill="#58C4DD"/>
<rect x="220.0" y="194.0" width="26.0" height="26.0" rx="2" fill="#58C4DD"/>
<rect x="250.0" y="194.0" width="26.0" height="26.0" rx="2" fill="#58C4DD"/>
<rect x="280.0" y="194.0" width="26.0" height="26.0" rx="2" fill="#58C4DD"/>
<rect x="310.0" y="194.0" width="26.0" height="26.0" rx="2" fill="#58C4DD"/>
<rect x="340.0" y="194.0" width="26.0" height="26.0" rx="2" fill="#58C4DD"/>
<rect x="370.0" y="194.0" width="26.0" height="26.0" rx="2" fill="#58C4DD"/>
<rect x="400.0" y="194.0" width="26.0" height="26.0" rx="2" fill="#58C4DD"/>
<rect x="430.0" y="194.0" width="26.0" height="26.0" rx="2" fill="#58C4DD"/>
<rect x="460.0" y="194.0" width="26.0" height="26.0" rx="2" fill="#58C4DD"/>
<rect x="490.0" y="194.0" width="26.0" height="26.0" rx="2" fill="#58C4DD"/>
<rect x="520.0" y="194.0" width="26.0" height="26.0" rx="2" fill="#58C4DD"/>
<rect x="550.0" y="194.0" width="26.0" height="26.0" rx="2" fill="#58C4DD"/>
<rect x="580.0" y="194.0" width="26.0" height="26.0" rx="2" fill="#58C4DD"/>
<rect x="610.0" y="194.0" width="26.0" height="26.0" rx="2" fill="#58C4DD"/>
<rect x="640.0" y="194.0" width="26.0" height="26.0" rx="2" fill="#58C4DD"/>
<rect x="670.0" y="194.0" width="26.0" height="26.0" rx="2" fill="#58C4DD"/>
<rect x="700.0" y="194.0" width="26.0" height="26.0" rx="2" fill="#58C4DD"/>
<rect x="730.0" y="194.0" width="26.0" height="26.0" rx="2" fill="#58C4DD"/>
<rect x="40.0" y="224.0" width="26.0" height="26.0" rx="2" fill="#58C4DD"/>
<rect x="70.0" y="224.0" width="26.0" height="26.0" rx="2" fill="#58C4DD"/>
<rect x="100.0" y="224.0" width="26.0" height="26.0" rx="2" fill="#58C4DD"/>
<rect x="130.0" y="224.0" width="26.0" height="26.0" rx="2" fill="#58C4DD"/>
<rect x="160.0" y="224.0" width="26.0" height="26.0" rx="2" fill="#58C4DD"/>
<rect x="190.0" y="224.0" width="26.0" height="26.0" rx="2" fill="#58C4DD"/>
<rect x="220.0" y="224.0" width="26.0" height="26.0" rx="2" fill="#58C4DD"/>
<rect x="250.0" y="224.0" width="26.0" height="26.0" rx="2" fill="#58C4DD"/>
<rect x="280.0" y="224.0" width="26.0" height="26.0" rx="2" fill="#58C4DD"/>
<rect x="310.0" y="224.0" width="26.0" height="26.0" rx="2" fill="#58C4DD"/>
<rect x="340.0" y="224.0" width="26.0" height="26.0" rx="2" fill="#58C4DD"/>
<rect x="370.0" y="224.0" width="26.0" height="26.0" rx="2" fill="#58C4DD"/>
<rect x="400.0" y="224.0" width="26.0" height="26.0" rx="2" fill="#58C4DD"/>
<rect x="430.0" y="224.0" width="26.0" height="26.0" rx="2" fill="#58C4DD"/>
<rect x="460.0" y="224.0" width="26.0" height="26.0" rx="2" fill="#58C4DD"/>
<rect x="490.0" y="224.0" width="26.0" height="26.0" rx="2" fill="#58C4DD"/>
<rect x="520.0" y="224.0" width="26.0" height="26.0" rx="2" fill="#58C4DD"/>
<rect x="550.0" y="224.0" width="26.0" height="26.0" rx="2" fill="#58C4DD"/>
<rect x="580.0" y="224.0" width="26.0" height="26.0" rx="2" fill="#58C4DD"/>
<rect x="610.0" y="224.0" width="26.0" height="26.0" rx="2" fill="#58C4DD"/>
<rect x="640.0" y="224.0" width="26.0" height="26.0" rx="2" fill="#58C4DD"/>
<rect x="670.0" y="224.0" width="26.0" height="26.0" rx="2" fill="#58C4DD"/>
<rect x="700.0" y="224.0" width="26.0" height="26.0" rx="2" fill="#58C4DD"/>
<rect x="730.0" y="224.0" width="26.0" height="26.0" rx="2" fill="#58C4DD"/>
<rect x="40.0" y="254.0" width="26.0" height="26.0" rx="2" fill="#58C4DD"/>
<text x="40.0" y="308.0" font-size="13" fill="#888888" text-anchor="start">skipped by the eligibility filter</text>
<rect x="40.0" y="318.0" width="26.0" height="26.0" rx="2" fill="#F0AC5F"/>
<rect x="70.0" y="318.0" width="26.0" height="26.0" rx="2" fill="#F0AC5F"/>
<rect x="100.0" y="318.0" width="26.0" height="26.0" rx="2" fill="#F0AC5F"/>
<rect x="130.0" y="318.0" width="26.0" height="26.0" rx="2" fill="#F0AC5F"/>
<rect x="160.0" y="318.0" width="26.0" height="26.0" rx="2" fill="#F0AC5F"/>
<rect x="190.0" y="318.0" width="26.0" height="26.0" rx="2" fill="#F0AC5F"/>
<rect x="220.0" y="318.0" width="26.0" height="26.0" rx="2" fill="#F0AC5F"/>
<rect x="250.0" y="318.0" width="26.0" height="26.0" rx="2" fill="#F0AC5F"/>
<rect x="280.0" y="318.0" width="26.0" height="26.0" rx="2" fill="#F0AC5F"/>
<rect x="310.0" y="318.0" width="26.0" height="26.0" rx="2" fill="#F0AC5F"/>
<rect x="340.0" y="318.0" width="26.0" height="26.0" rx="2" fill="#F0AC5F"/>
<rect x="370.0" y="318.0" width="26.0" height="26.0" rx="2" fill="#F0AC5F"/>
<rect x="400.0" y="318.0" width="26.0" height="26.0" rx="2" fill="#F0AC5F"/>
<line x1="40.0" y1="368.0" x2="960.0" y2="368.0" stroke="#736357" stroke-width="1" opacity="0.4"/>
<text x="40" y="390" font-size="14" fill="#888888"><tspan fill="#F0AC5F">12 x ve_gate</tspan> <tspan font-family="ui-monospace,SFMono-Regular,Consolas,'Liberation Mono',Menlo,monospace">Linear(12, 12)</tspan> &#8212; 12 is not divisible by 16</text>
<text x="40" y="414" font-size="14" fill="#888888"><tspan fill="#F0AC5F">1 x smear_gate</tspan> <tspan font-family="ui-monospace,SFMono-Regular,Consolas,'Liberation Mono',Menlo,monospace">Linear(24, 1)</tspan> &#8212; far below the minimum dimension</text>
<text x="40.0" y="442.0" font-size="13" fill="#736357" text-anchor="start" font-family="ui-monospace,SFMono-Regular,Consolas,'Liberation Mono',Menlo,monospace">the run logged: converted 145/158 linear layers, skipped 13 (too small)</text>
</svg>